<svg xmlns="http://www.w3.org/2000/svg" viewBox="0 0 200 200" width="200" height="200">
  <!-- Background -->
  <rect width="200" height="200" fill="white"/>
  
  <!-- Sun -->
  <circle cx="100" cy="50" r="30" fill="#f97316"/>
  <line x1="100" y1="10" x2="100" y2="5" stroke="#f97316" stroke-width="3" stroke-linecap="round"/>
  <line x1="100" y1="95" x2="100" y2="100" stroke="#f97316" stroke-width="3" stroke-linecap="round"/>
  <line x1="140" y1="50" x2="144" y2="50" stroke="#f97316" stroke-width="3" stroke-linecap="round"/>
  <line x1="60" y1="50" x2="56" y2="50" stroke="#f97316" stroke-width="3" stroke-linecap="round"/>
  <line x1="130" y1="20" x2="133" y2="17" stroke="#f97316" stroke-width="3" stroke-linecap="round"/>
  <line x1="67" y1="83" x2="70" y2="86" stroke="#f97316" stroke-width="3" stroke-linecap="round"/>
  <line x1="130" y1="80" x2="133" y2="83" stroke="#f97316" stroke-width="3" stroke-linecap="round"/>
  <line x1="67" y1="17" x2="70" y2="20" stroke="#f97316" stroke-width="3" stroke-linecap="round"/>
  
  <!-- Solar Panels -->
  <g>
    <!-- Panel 1 -->
    <rect x="40" y="110" width="35" height="50" fill="#1e293b" rx="2"/>
    <line x1="42" y1="120" x2="73" y2="120" stroke="#10b981" stroke-width="1" opacity="0.3"/>
    <line x1="42" y1="128" x2="73" y2="128" stroke="#10b981" stroke-width="1" opacity="0.3"/>
    <line x1="42" y1="136" x2="73" y2="136" stroke="#10b981" stroke-width="1" opacity="0.3"/>
    <line x1="42" y1="144" x2="73" y2="144" stroke="#10b981" stroke-width="1" opacity="0.3"/>
    <line x1="50" y1="110" x2="50" y2="160" stroke="#10b981" stroke-width="1" opacity="0.3"/>
    <line x1="58" y1="110" x2="58" y2="160" stroke="#10b981" stroke-width="1" opacity="0.3"/>
    <line x1="66" y1="110" x2="66" y2="160" stroke="#10b981" stroke-width="1" opacity="0.3"/>
  </g>
  
  <g>
    <!-- Panel 2 -->
    <rect x="82" y="110" width="35" height="50" fill="#1e293b" rx="2"/>
    <line x1="84" y1="120" x2="115" y2="120" stroke="#10b981" stroke-width="1" opacity="0.3"/>
    <line x1="84" y1="128" x2="115" y2="128" stroke="#10b981" stroke-width="1" opacity="0.3"/>
    <line x1="84" y1="136" x2="115" y2="136" stroke="#10b981" stroke-width="1" opacity="0.3"/>
    <line x1="84" y1="144" x2="115" y2="144" stroke="#10b981" stroke-width="1" opacity="0.3"/>
    <line x1="92" y1="110" x2="92" y2="160" stroke="#10b981" stroke-width="1" opacity="0.3"/>
    <line x1="100" y1="110" x2="100" y2="160" stroke="#10b981" stroke-width="1" opacity="0.3"/>
    <line x1="108" y1="110" x2="108" y2="160" stroke="#10b981" stroke-width="1" opacity="0.3"/>
  </g>
  
  <g>
    <!-- Panel 3 -->
    <rect x="124" y="110" width="35" height="50" fill="#1e293b" rx="2"/>
    <line x1="126" y1="120" x2="157" y2="120" stroke="#10b981" stroke-width="1" opacity="0.3"/>
    <line x1="126" y1="128" x2="157" y2="128" stroke="#10b981" stroke-width="1" opacity="0.3"/>
    <line x1="126" y1="136" x2="157" y2="136" stroke="#10b981" stroke-width="1" opacity="0.3"/>
    <line x1="126" y1="144" x2="157" y2="144" stroke="#10b981" stroke-width="1" opacity="0.3"/>
    <line x1="134" y1="110" x2="134" y2="160" stroke="#10b981" stroke-width="1" opacity="0.3"/>
    <line x1="142" y1="110" x2="142" y2="160" stroke="#10b981" stroke-width="1" opacity="0.3"/>
    <line x1="150" y1="110" x2="150" y2="160" stroke="#10b981" stroke-width="1" opacity="0.3"/>
  </g>
  
  <!-- Text -->
  <text x="100" y="185" font-family="Arial, sans-serif" font-size="14" font-weight="bold" text-anchor="middle" fill="#f97316">SIYA RENEWABLE</text>
</svg>